<svg xmlns="http://www.w3.org/2000/svg" xmlns:xlink="http://www.w3.org/1999/xlink" viewBox="0,0,256,256" width="500px" height="500px" fill-rule="nonzero"><g fill="#6a886d" fill-rule="nonzero" stroke="none" stroke-width="1" stroke-linecap="butt" stroke-linejoin="miter" stroke-miterlimit="10" stroke-dasharray="" stroke-dashoffset="0" font-family="none" font-weight="none" font-size="none" text-anchor="none" style="mix-blend-mode: normal"><g transform="scale(5.12,5.12)"><path d="M25,3c-12.13672,0 -22,9.86328 -22,22c0,12.13672 9.86328,22 22,22c12.13672,0 22,-9.86328 22,-22c0,-12.13672 -9.86328,-22 -22,-22zM25,5c5.17188,0 9.85938,1.97266 13.40625,5.1875l-2.8125,2.8125c-2.82031,-2.48828 -6.53516,-4 -10.59375,-4c-4.23828,0 -7.99609,1.61719 -10.84375,4.25c-0.35937,-0.15234 -0.74609,-0.25 -1.15625,-0.25c-1.64453,0 -3,1.35547 -3,3c0,0.71875 0.25781,1.38672 0.6875,1.90625c-1.11719,2.14063 -1.6875,4.53516 -1.6875,7.09375c0,7.89063 5.68359,14.37891 13.09375,15.6875c0.31641,1.3125 1.5,2.3125 2.90625,2.3125c1.41406,0 2.59766,-1.01562 2.90625,-2.34375c7.45703,-1.33984 13.09375,-7.79687 13.09375,-15.65625c0,-4.05859 -1.51172,-7.77344 -4,-10.59375l2.8125,-2.8125c3.21484,3.54688 5.1875,8.23438 5.1875,13.40625c0,11.05859 -8.94141,20 -20,20c-11.05859,0 -20,-8.94141 -20,-20c0,-11.05859 8.94141,-20 20,-20zM25,11c3.52344,0 6.70313,1.30859 9.15625,3.4375l-2.8125,2.84375c-0.00781,-0.00391 -0.02344,0.00391 -0.03125,0c-1.72656,-1.41797 -3.91016,-2.28125 -6.3125,-2.28125c-5.51172,0 -10,4.48828 -10,10c0,5.51172 4.48828,10 10,10c2.78516,0 5.30859,-1.15234 7.125,-3c1.04688,-0.06641 1.875,-0.9375 1.875,-2c0,-0.18359 -0.01562,-0.36328 -0.0625,-0.53125c0.67969,-1.34766 1.0625,-2.85937 1.0625,-4.46875c0,-2.40234 -0.86328,-4.58594 -2.28125,-6.3125c-0.00391,-0.00781 0.00391,-0.02344 0,-0.03125l2.84375,-2.8125c2.12891,2.45313 3.4375,5.63281 3.4375,9.15625c0,6.85156 -4.85547,12.45703 -11.3125,13.6875c-0.49219,-0.99609 -1.51172,-1.6875 -2.6875,-1.6875c-1.18359,0 -2.20312,0.71094 -2.6875,1.71875c-6.41016,-1.19141 -11.3125,-6.83203 -11.3125,-13.71875c0,-2.23047 0.48438,-4.25 1.40625,-6.0625c0.19531,0.03906 0.38672,0.0625 0.59375,0.0625c1.64453,0 3,-1.35547 3,-3c0,-0.50781 -0.14844,-0.98437 -0.375,-1.40625c2.48438,-2.24609 5.70313,-3.59375 9.375,-3.59375zM13,15c0.5625,0 1,0.4375 1,1c0,0.5625 -0.4375,1 -1,1c-0.5625,0 -1,-0.4375 -1,-1c0,-0.5625 0.4375,-1 1,-1zM25,17c1.85547,0 3.55078,0.63281 4.90625,1.6875l-3.625,3.625c-0.39062,-0.1875 -0.82031,-0.3125 -1.28125,-0.3125c-1.64453,0 -3,1.35547 -3,3c0,1.64453 1.35547,3 3,3c1.64453,0 3,-1.35547 3,-3c0,-0.46094 -0.125,-0.89062 -0.3125,-1.28125l3.625,-3.625c1.05469,1.35547 1.6875,3.05078 1.6875,4.90625c0,1.07422 -0.21484,2.09766 -0.59375,3.03125c-0.12891,-0.02734 -0.26953,-0.03125 -0.40625,-0.03125c-1.10547,0 -2,0.89453 -2,2c0,0.36328 0.10938,0.70703 0.28125,1c-1.41016,1.24219 -3.25,2 -5.28125,2c-4.42969,0 -8,-3.57031 -8,-8c0,-4.42969 3.57031,-8 8,-8zM25,24c0.5625,0 1,0.4375 1,1c0,0.5625 -0.4375,1 -1,1c-0.5625,0 -1,-0.4375 -1,-1c0,-0.5625 0.4375,-1 1,-1zM25,39c0.5625,0 1,0.4375 1,1c0,0.5625 -0.4375,1 -1,1c-0.5625,0 -1,-0.4375 -1,-1c0,-0.5625 0.4375,-1 1,-1z"></path></g></g></svg>